PathFileType	4	(X/Y/Z)	C:\Users\WrightLab\Desktop\Jo\P2_Trial21.trc
DataRate	CameraRate	NumFrames	NumMarkers	Units	OrigDataRate	OrigDataStartFrame	OrigNumFrames
100.00	100.00	       18	19	mm	100.00	376	       600
Frame#	Time	Headset_Front			Headset_Back			Headset_Left			Headset_Right			Left_Shoulder			Right_Shoulder			Sternum			C7			Left Elbow			Right Elbow			Left Wrist			Right Wrist			Left ASIS			Right ASIS			S2			Left Knee			Right Knee			Left Ankle			Right Ankle			
		X1	Y1	Z1	X2	Y2	Z2	X3	Y3	Z3	X4	Y4	Z4	X5	Y5	Z5	X6	Y6	Z6	X7	Y7	Z7	X8	Y8	Z8	X9	Y9	Z9	X10	Y10	Z10	X11	Y11	Z11	X12	Y12	Z12	X13	Y13	Z13	X14	Y14	Z14	X15	Y15	Z15	X16	Y16	Z16	X17	Y17	Z17	X18	Y18	Z18	X19	Y19	Z19	

376	3.750	228.54979	1502.94202	1437.21216	237.53583	1708.80872	1209.44214	345.79926	1620.37878	1308.44495	124.81036	1565.47791	1345.47058	393.85159	1460.41858	1185.06323	82.00723	1469.89465	1232.05884	243.73593	1348.85938	1281.39221	211.07675	1447.71326	1101.48767	552.13928	1195.45349	1191.12524										332.90292	1055.83801	1320.04919	199.37788	1045.29993	1350.97021	223.53938	962.18890	1071.49561	465.61682	502.58273	1147.59314	200.71858	566.40887	1322.45947	399.46771	231.67871	946.96490				
377	3.760	226.36626	1503.99512	1445.13452	239.01990	1710.37207	1217.39612	345.78595	1622.66077	1318.35559	124.08630	1566.80176	1351.61133	396.00812	1461.16394	1194.22351	83.65066	1471.12537	1238.88391	245.37691	1350.14050	1289.06616	213.93384	1448.97888	1109.65930	553.32684	1196.35193	1202.80872										333.61270	1057.77478	1329.52625	199.51559	1046.37061	1358.36365	226.11905	963.52753	1079.25928	480.05869	505.39886	1167.31201	194.33130	563.83313	1332.74573	412.74576	238.23997	964.57843				
378	3.770	224.73877	1505.31934	1452.83069	239.79199	1711.94934	1225.55811				123.45273	1568.17749	1358.51245	398.21774	1462.62390	1203.92065	84.68211	1472.69055	1245.55347	246.21692	1351.22961	1297.39575	216.71010	1450.77087	1117.54688	555.16418	1197.48926	1214.47620										333.72397	1058.13953	1336.53906	199.36253	1047.19055	1365.45447	229.23009	964.50714	1086.39197	493.52478	506.98157	1188.80603	189.99925	561.91211	1341.66553	425.94516	243.29283	984.02716				
379	3.780	222.76181	1506.68005	1460.04639	241.73604	1713.47400	1233.37756				123.08326	1569.54651	1364.25830	399.85797	1464.13330	1213.70593	85.50461	1474.41199	1252.39453	247.11990	1352.38757	1304.87744	219.94830	1452.09106	1124.86182	555.74878	1198.06970	1226.69617										333.69040	1059.27759	1345.45947	199.55974	1048.62500	1372.40979	231.25282	966.64032	1093.23364	505.98233	508.63791	1211.22913	183.86711	561.17828	1348.35754	439.01025	249.02466	1004.57666				
380	3.790	221.09215	1508.04285	1468.26404	243.01665	1715.10010	1241.42383	346.76425	1628.12915	1349.30310	123.14837	1570.81189	1370.23608	401.58710	1465.68701	1223.51587	87.58897	1475.29504	1259.01685	247.93869	1353.60034	1312.77307	222.23749	1453.77625	1133.09399	556.74976	1199.45435	1238.22742										333.73849	1061.19226	1354.19604	199.58359	1049.26099	1379.75049	234.05910	967.94733	1100.42651	517.41443	508.60126	1232.90747	177.75285	561.23236	1354.04004	454.30804	254.63367	1023.09821				
381	3.800	219.50903	1509.23438	1475.51306	244.83806	1717.43323	1250.20679	346.00253	1629.55200	1358.61121	121.92447	1572.71411	1377.75671	403.02371	1467.10852	1232.68054	89.38820	1476.67664	1265.53357	248.52258	1354.55200	1320.77429	224.73740	1455.40283	1140.97156	557.93945	1200.60413	1249.25366										333.79437	1062.39832	1361.38196	199.23267	1050.73621	1386.48865	236.78864	969.56616	1107.43616	528.65839	508.85495	1257.42944	171.79832	561.38470	1357.71545	467.46939	258.79245	1045.06653				
382	3.810	217.63469	1510.66577	1483.90747	246.51669	1718.64355	1258.50427	345.99899	1630.54297	1366.69812	121.98353	1573.75989	1384.22156	404.65457	1468.86267	1241.81091	90.12534	1478.45056	1272.49573	249.59009	1355.87415	1327.99719	227.08524	1456.85864	1149.33142	558.54364	1201.67542	1259.95154										333.66940	1064.26086	1370.00073	198.90331	1051.86145	1393.01440	239.74246	971.38501	1114.42883	538.50586	508.23105	1282.13489	165.94426	561.40521	1360.16907	483.97577	265.70447	1065.39734				
383	3.820	215.81732	1511.85486	1491.66394	248.05292	1719.83606	1266.82092	346.28674	1632.18396	1375.84949	121.26428	1575.77112	1390.94250	405.67374	1469.90308	1251.86584	91.23390	1480.06714	1278.99438	249.92487	1356.81323	1335.51538	229.22240	1458.31641	1157.28333	559.48755	1203.74731	1271.54932										333.21924	1065.51538	1378.78027	198.57147	1053.51282	1399.63953	242.37811	972.79449	1121.47961	546.89325	507.83575	1308.65674	160.94986	560.66681	1361.14221	495.90042	268.15283	1087.57104				
384	3.830	214.30423	1513.30859	1499.47217	248.88217	1721.49597	1275.17554	346.43088	1633.38098	1385.37170	121.33025	1577.03015	1397.90857	406.92770	1471.94812	1261.86597	91.91897	1481.68945	1285.63501	250.43718	1358.43896	1343.17603	231.28029	1460.14197	1165.44153	560.16919	1204.76660	1281.75952										333.25684	1067.26685	1386.56982	198.30609	1054.57898	1406.42078	244.91742	974.00830	1128.40247	554.57782	510.23239	1336.03479	156.61461	559.88812	1361.60901	508.30167	270.25089	1110.64783				
385	3.840	212.79478	1514.70337	1508.18811	250.31650	1722.79102	1283.44092	345.59863	1634.65393	1396.09692	121.05724	1578.20447	1404.20630	407.52554	1472.81812	1271.43201	93.05116	1482.82080	1292.13098	250.25644	1359.68542	1351.04846	233.64662	1461.74829	1173.31543	561.47339	1206.42639	1292.37402										332.45157	1068.07361	1394.55212	197.50047	1056.13062	1411.57886	248.89137	976.90540	1136.60571	560.16040	517.64429	1363.40479	152.65442	558.88092	1361.07385	521.94110	272.98770	1135.48853				
386	3.850	210.97038	1516.51953	1516.74829	251.60199	1723.98486	1291.70996	345.58160	1635.54297	1405.58105	120.30163	1580.14746	1412.30261	409.19125	1475.08521	1281.47083	93.96912	1484.09497	1298.93701	249.77815	1360.89270	1358.41187	235.12103	1463.45349	1181.69409	562.36987	1207.38831	1302.47742										331.92761	1069.71045	1402.87244	196.36024	1057.18994	1417.62061	251.65823	978.11658	1143.07422	564.49872	527.40442	1388.38513	149.16373	557.66235	1360.41931	533.50134	276.30405	1160.12390				
387	3.860	209.34248	1517.33569	1524.79431	252.57471	1724.58484	1300.18555	345.49472	1636.32642	1414.48303	120.16297	1581.52173	1419.02917	410.21213	1476.45715	1291.79370	93.83974	1485.89722	1306.35547	249.70859	1361.03955	1365.26782	237.22141	1464.95886	1190.03149	563.24298	1209.08801	1312.78235										330.75851	1070.88025	1411.15247	195.08873	1057.50342	1423.22803	255.17018	979.96271	1149.83325	567.47852	538.07544	1413.46509	145.70995	556.63611	1359.17505	546.75531	280.16617	1186.34900				
388	3.870	208.06776	1518.72888	1533.32349	252.79341	1725.82678	1308.60339	344.97952	1636.74280	1422.90918	119.03313	1582.88721	1427.02112	409.42542	1477.14905	1302.04395	94.66041	1486.81262	1313.23108	249.62038	1362.11511	1373.18591	238.95343	1465.75903	1197.89392	564.26337	1210.30457	1322.48926										329.50009	1071.64465	1418.19751	193.97433	1058.82886	1430.73486	258.54364	981.33765	1156.98499	565.16364	544.87744	1437.19495	142.77654	555.95300	1357.73096	558.35071	282.10562	1213.80286				
389	3.880	206.60612	1519.11951	1541.30969				344.63361	1637.55933	1432.07520	118.82387	1583.04700	1433.96741	409.59067	1477.88513	1312.48755	94.60324	1487.77905	1320.04114	248.95479	1362.75500	1380.99463	240.16364	1467.26416	1206.68079	565.63629	1211.79102	1332.96558										328.73010	1072.82019	1427.18262	192.90485	1059.34302	1436.02307	261.79895	981.76709	1164.12415	561.52466	551.05115	1459.74194	140.52077	555.42133	1356.08411	567.59363	282.98972	1241.18811				
390	3.890	204.71307	1520.31213	1549.95984				344.30508	1637.54968	1441.19373	118.04060	1584.67017	1442.12317	409.79321	1478.78748	1322.60254	94.44176	1488.31934	1327.10718	248.86938	1363.36951	1389.12463	241.93002	1467.87817	1215.16895	565.53632	1212.94946	1343.60815										327.82782	1073.27405	1434.27954	191.82082	1059.57568	1441.96460	265.27545	982.94739	1170.74792	557.05896	557.14020	1481.61743	139.23080	554.81195	1354.03491	577.74249	285.54193	1269.43506				
391	3.900	203.23129	1520.59570	1558.96692							117.19936	1585.04199	1449.88708	410.32101	1479.30396	1332.47229	94.93408	1488.22717	1333.99365	248.58998	1362.96704	1396.71655	243.20490	1468.80933	1223.28394	566.66351	1213.54956	1352.96765										325.90451	1073.88599	1441.96436	190.51337	1059.87805	1448.44922	268.63077	983.59900	1177.73108	550.27264	562.96545	1503.01807	139.02177	553.89648	1351.98352	586.33118	286.93784	1297.52612				
392	3.910	201.31731	1521.04395	1567.41125	342.60809	1637.65503	1460.12061				116.34467	1585.68762	1457.98706	410.00385	1479.41748	1342.63599	94.17126	1488.42578	1341.02185	247.85828	1363.05762	1404.51013	244.21661	1469.36328	1231.74365	567.25232	1215.00598	1363.38879										324.46567	1075.17395	1450.88843	189.83891	1059.61023	1454.53906	272.68512	984.27118	1185.81323	542.09161	567.05878	1522.55298	139.33253	553.41406	1350.20801	595.52686	288.27856	1326.68298				
393	3.920	199.51222	1521.19702	1576.05273	342.32852	1637.25879	1468.93274				115.53937	1585.81787	1465.37378	409.79779	1479.27307	1351.85669	94.76156	1487.89563	1347.84216	247.64624	1362.63013	1412.89246	246.53015	1468.75806	1240.26941	567.63220	1215.03503	1372.45557										322.82007	1075.54993	1458.60925	187.92804	1058.51660	1460.89709	276.86676	984.49170	1193.78015	532.98138	571.37518	1542.52856	140.40320	552.79077	1347.86011	602.51440	290.92432	1353.72729				
